{"asset":{"version":"2.0","generator":"THREE.GLTFExporter r173"},"scenes":[{"nodes":[72]}],"scene":0,"nodes":[{"matrix":[1,0,0,0,0,1,0,0,0,0,1,0,0,0.009,0.02,1],"mesh":0},{"matrix":[1,0,0,0,0,1,0,0,0,0,1,0,0,0.023,-0.06,1],"mesh":1},{"matrix":[1,0,0,0,0,1,0,0,0,0,1,0,0,0.045,-0.07,1],"mesh":2},{"matrix":[1,0,0,0,0,1,0,0,0,0,1,0,0,0.046,0.25,1],"mesh":3},{"matrix":[1,0,0,0,0,1,0,0,0,0,1,0,-0.5115,0.052,-0.18,1],"mesh":4},{"matrix":[1,0,0,0,0,1,0,0,0,0,1,0,-0.4185,0.052,-0.18,1],"mesh":5},{"matrix":[1,0,0,0,0,1,0,0,0,0,1,0,-0.32549999999999996,0.052,-0.18,1],"mesh":6},{"matrix":[1,0,0,0,0,1,0,0,0,0,1,0,-0.23249999999999993,0.052,-0.18,1],"mesh":7},{"matrix":[1,0,0,0,0,1,0,0,0,0,1,0,-0.13949999999999996,0.052,-0.18,1],"mesh":8},{"matrix":[1,0,0,0,0,1,0,0,0,0,1,0,-0.046499999999999986,0.052,-0.18,1],"mesh":9},{"matrix":[1,0,0,0,0,1,0,0,0,0,1,0,0.0465000000000001,0.052,-0.18,1],"mesh":10},{"matrix":[1,0,0,0,0,1,0,0,0,0,1,0,0.13950000000000007,0.052,-0.18,1],"mesh":11},{"matrix":[1,0,0,0,0,1,0,0,0,0,1,0,0.23250000000000004,0.052,-0.18,1],"mesh":12},{"matrix":[1,0,0,0,0,1,0,0,0,0,1,0,0.3255,0.052,-0.18,1],"mesh":13},{"matrix":[1,0,0,0,0,1,0,0,0,0,1,0,0.4185,0.052,-0.18,1],"mesh":14},{"matrix":[1,0,0,0,0,1,0,0,0,0,1,0,0.5115,0.052,-0.18,1],"mesh":15},{"matrix":[1,0,0,0,0,1,0,0,0,0,1,0,-0.5115,0.052,-0.095,1],"mesh":16},{"matrix":[1,0,0,0,0,1,0,0,0,0,1,0,-0.4185,0.052,-0.095,1],"mesh":17},{"matrix":[1,0,0,0,0,1,0,0,0,0,1,0,-0.32549999999999996,0.052,-0.095,1],"mesh":18},{"matrix":[1,0,0,0,0,1,0,0,0,0,1,0,-0.23249999999999993,0.052,-0.095,1],"mesh":19},{"matrix":[1,0,0,0,0,1,0,0,0,0,1,0,-0.13949999999999996,0.052,-0.095,1],"mesh":20},{"matrix":[1,0,0,0,0,1,0,0,0,0,1,0,-0.046499999999999986,0.052,-0.095,1],"mesh":21},{"matrix":[1,0,0,0,0,1,0,0,0,0,1,0,0.0465000000000001,0.052,-0.095,1],"mesh":22},{"matrix":[1,0,0,0,0,1,0,0,0,0,1,0,0.13950000000000007,0.052,-0.095,1],"mesh":23},{"matrix":[1,0,0,0,0,1,0,0,0,0,1,0,0.23250000000000004,0.052,-0.095,1],"mesh":24},{"matrix":[1,0,0,0,0,1,0,0,0,0,1,0,0.3255,0.052,-0.095,1],"mesh":25},{"matrix":[1,0,0,0,0,1,0,0,0,0,1,0,0.4185,0.052,-0.095,1],"mesh":26},{"matrix":[1,0,0,0,0,1,0,0,0,0,1,0,0.5115,0.052,-0.095,1],"mesh":27},{"matrix":[1,0,0,0,0,1,0,0,0,0,1,0,-0.5115,0.052,-0.010000000000000009,1],"mesh":28},{"matrix":[1,0,0,0,0,1,0,0,0,0,1,0,-0.4185,0.052,-0.010000000000000009,1],"mesh":29},{"matrix":[1,0,0,0,0,1,0,0,0,0,1,0,-0.32549999999999996,0.052,-0.010000000000000009,1],"mesh":30},{"matrix":[1,0,0,0,0,1,0,0,0,0,1,0,-0.23249999999999993,0.052,-0.010000000000000009,1],"mesh":31},{"matrix":[1,0,0,0,0,1,0,0,0,0,1,0,-0.13949999999999996,0.052,-0.010000000000000009,1],"mesh":32},{"matrix":[1,0,0,0,0,1,0,0,0,0,1,0,-0.046499999999999986,0.052,-0.010000000000000009,1],"mesh":33},{"matrix":[1,0,0,0,0,1,0,0,0,0,1,0,0.0465000000000001,0.052,-0.010000000000000009,1],"mesh":34},{"matrix":[1,0,0,0,0,1,0,0,0,0,1,0,0.13950000000000007,0.052,-0.010000000000000009,1],"mesh":35},{"matrix":[1,0,0,0,0,1,0,0,0,0,1,0,0.23250000000000004,0.052,-0.010000000000000009,1],"mesh":36},{"matrix":[1,0,0,0,0,1,0,0,0,0,1,0,0.3255,0.052,-0.010000000000000009,1],"mesh":37},{"matrix":[1,0,0,0,0,1,0,0,0,0,1,0,0.4185,0.052,-0.010000000000000009,1],"mesh":38},{"matrix":[1,0,0,0,0,1,0,0,0,0,1,0,0.5115,0.052,-0.010000000000000009,1],"mesh":39},{"matrix":[1,0,0,0,0,1,0,0,0,0,1,0,-0.5115,0.052,0.07500000000000001,1],"mesh":40},{"matrix":[1,0,0,0,0,1,0,0,0,0,1,0,-0.4185,0.052,0.07500000000000001,1],"mesh":41},{"matrix":[1,0,0,0,0,1,0,0,0,0,1,0,-0.32549999999999996,0.052,0.07500000000000001,1],"mesh":42},{"matrix":[1,0,0,0,0,1,0,0,0,0,1,0,-0.23249999999999993,0.052,0.07500000000000001,1],"mesh":43},{"matrix":[1,0,0,0,0,1,0,0,0,0,1,0,-0.13949999999999996,0.052,0.07500000000000001,1],"mesh":44},{"matrix":[1,0,0,0,0,1,0,0,0,0,1,0,-0.046499999999999986,0.052,0.07500000000000001,1],"mesh":45},{"matrix":[1,0,0,0,0,1,0,0,0,0,1,0,0.0465000000000001,0.052,0.07500000000000001,1],"mesh":46},{"matrix":[1,0,0,0,0,1,0,0,0,0,1,0,0.13950000000000007,0.052,0.07500000000000001,1],"mesh":47},{"matrix":[1,0,0,0,0,1,0,0,0,0,1,0,0.23250000000000004,0.052,0.07500000000000001,1],"mesh":48},{"matrix":[1,0,0,0,0,1,0,0,0,0,1,0,0.3255,0.052,0.07500000000000001,1],"mesh":49},{"matrix":[1,0,0,0,0,1,0,0,0,0,1,0,0.4185,0.052,0.07500000000000001,1],"mesh":50},{"matrix":[1,0,0,0,0,1,0,0,0,0,1,0,0.5115,0.052,0.07500000000000001,1],"mesh":51},{"matrix":[1,0,0,0,0,1,0,0,0,0,1,0,-0.5115,0.052,0.15999999999999998,1],"mesh":52},{"matrix":[1,0,0,0,0,1,0,0,0,0,1,0,-0.4185,0.052,0.15999999999999998,1],"mesh":53},{"matrix":[1,0,0,0,0,1,0,0,0,0,1,0,-0.32549999999999996,0.052,0.15999999999999998,1],"mesh":54},{"matrix":[1,0,0,0,0,1,0,0,0,0,1,0,-0.23249999999999993,0.052,0.15999999999999998,1],"mesh":55},{"matrix":[1,0,0,0,0,1,0,0,0,0,1,0,-0.13949999999999996,0.052,0.15999999999999998,1],"mesh":56},{"matrix":[1,0,0,0,0,1,0,0,0,0,1,0,-0.046499999999999986,0.052,0.15999999999999998,1],"mesh":57},{"matrix":[1,0,0,0,0,1,0,0,0,0,1,0,0.0465000000000001,0.052,0.15999999999999998,1],"mesh":58},{"matrix":[1,0,0,0,0,1,0,0,0,0,1,0,0.13950000000000007,0.052,0.15999999999999998,1],"mesh":59},{"matrix":[1,0,0,0,0,1,0,0,0,0,1,0,0.23250000000000004,0.052,0.15999999999999998,1],"mesh":60},{"matrix":[1,0,0,0,0,1,0,0,0,0,1,0,0.3255,0.052,0.15999999999999998,1],"mesh":61},{"matrix":[1,0,0,0,0,1,0,0,0,0,1,0,0.4185,0.052,0.15999999999999998,1],"mesh":62},{"matrix":[1,0,0,0,0,1,0,0,0,0,1,0,0.5115,0.052,0.15999999999999998,1],"mesh":63},{"matrix":[2.220446049250313e-16,1,0,0,-1,2.220446049250313e-16,0,0,0,0,1,0,0,0.06,-0.63,1],"mesh":64},{"matrix":[1,0,0,0,0,1,0,0,0,0,1,0,-0.63,0.06,-0.62,1],"mesh":65},{"matrix":[1,0,0,0,0,1,0,0,0,0,1,0,0.63,0.06,-0.62,1],"mesh":66},{"matrix":[1,0,0,0,0,1,0,0,0,0,1,0,0,0.56,-0.01,1],"mesh":67},{"matrix":[1,0,0,0,0,1,0,0,0,0,1,0,0,0.56,0.002,1],"mesh":68},{"matrix":[1,0,0,0,0,1,0,0,0,0,1,0,0,0.56,0.008,1],"name":"screen","mesh":69},{"matrix":[1,0,0,0,0,2.220446049250313e-16,1,0,0,-1,2.220446049250313e-16,0,0,1.05,0.008,1],"name":"camera_dot","mesh":70},{"matrix":[1,0,0,0,0,0.9950041652780258,-0.09983341664682815,0,0,0.09983341664682815,0.9950041652780258,0,0,0.06,-0.62,1],"children":[67,68,69,70]},{"name":"macbook_style","children":[0,1,2,3,4,5,6,7,8,9,10,11,12,13,14,15,16,17,18,19,20,21,22,23,24,25,26,27,28,29,30,31,32,33,34,35,36,37,38,39,40,41,42,43,44,45,46,47,48,49,50,51,52,53,54,55,56,57,58,59,60,61,62,63,64,65,66,71]}],"bufferViews":[{"buffer":0,"byteOffset":0,"byteLength":288,"target":34962,"byteStride":12},{"buffer":0,"byteOffset":288,"byteLength":288,"target":34962,"byteStride":12},{"buffer":0,"byteOffset":576,"byteLength":192,"target":34962,"byteStride":8},{"buffer":0,"byteOffset":768,"byteLength":72,"target":34963},{"buffer":0,"byteOffset":840,"byteLength":288,"target":34962,"byteStride":12},{"buffer":0,"byteOffset":1128,"byteLength":288,"target":34962,"byteStride":12},{"buffer":0,"byteOffset":1416,"byteLength":192,"target":34962,"byteStride":8},{"buffer":0,"byteOffset":1608,"byteLength":72,"target":34963},{"buffer":0,"byteOffset":1680,"byteLength":288,"target":34962,"byteStride":12},{"buffer":0,"byteOffset":1968,"byteLength":288,"target":34962,"byteStride":12},{"buffer":0,"byteOffset":2256,"byteLength":192,"target":34962,"byteStride":8},{"buffer":0,"byteOffset":2448,"byteLength":72,"target":34963},{"buffer":0,"byteOffset":2520,"byteLength":288,"target":34962,"byteStride":12},{"buffer":0,"byteOffset":2808,"byteLength":288,"target":34962,"byteStride":12},{"buffer":0,"byteOffset":3096,"byteLength":192,"target":34962,"byteStride":8},{"buffer":0,"byteOffset":3288,"byteLength":72,"target":34963},{"buffer":0,"byteOffset":3360,"byteLength":288,"target":34962,"byteStride":12},{"buffer":0,"byteOffset":3648,"byteLength":288,"target":34962,"byteStride":12},{"buffer":0,"byteOffset":3936,"byteLength":192,"target":34962,"byteStride":8},{"buffer":0,"byteOffset":4128,"byteLength":72,"target":34963},{"buffer":0,"byteOffset":4200,"byteLength":288,"target":34962,"byteStride":12},{"buffer":0,"byteOffset":4488,"byteLength":288,"target":34962,"byteStride":12},{"buffer":0,"byteOffset":4776,"byteLength":192,"target":34962,"byteStride":8},{"buffer":0,"byteOffset":4968,"byteLength":72,"target":34963},{"buffer":0,"byteOffset":5040,"byteLength":288,"target":34962,"byteStride":12},{"buffer":0,"byteOffset":5328,"byteLength":288,"target":34962,"byteStride":12},{"buffer":0,"byteOffset":5616,"byteLength":192,"target":34962,"byteStride":8},{"buffer":0,"byteOffset":5808,"byteLength":72,"target":34963},{"buffer":0,"byteOffset":5880,"byteLength":288,"target":34962,"byteStride":12},{"buffer":0,"byteOffset":6168,"byteLength":288,"target":34962,"byteStride":12},{"buffer":0,"byteOffset":6456,"byteLength":192,"target":34962,"byteStride":8},{"buffer":0,"byteOffset":6648,"byteLength":72,"target":34963},{"buffer":0,"byteOffset":6720,"byteLength":288,"target":34962,"byteStride":12},{"buffer":0,"byteOffset":7008,"byteLength":288,"target":34962,"byteStride":12},{"buffer":0,"byteOffset":7296,"byteLength":192,"target":34962,"byteStride":8},{"buffer":0,"byteOffset":7488,"byteLength":72,"target":34963},{"buffer":0,"byteOffset":7560,"byteLength":288,"target":34962,"byteStride":12},{"buffer":0,"byteOffset":7848,"byteLength":288,"target":34962,"byteStride":12},{"buffer":0,"byteOffset":8136,"byteLength":192,"target":34962,"byteStride":8},{"buffer":0,"byteOffset":8328,"byteLength":72,"target":34963},{"buffer":0,"byteOffset":8400,"byteLength":288,"target":34962,"byteStride":12},{"buffer":0,"byteOffset":8688,"byteLength":288,"target":34962,"byteStride":12},{"buffer":0,"byteOffset":8976,"byteLength":192,"target":34962,"byteStride":8},{"buffer":0,"byteOffset":9168,"byteLength":72,"target":34963},{"buffer":0,"byteOffset":9240,"byteLength":288,"target":34962,"byteStride":12},{"buffer":0,"byteOffset":9528,"byteLength":288,"target":34962,"byteStride":12},{"buffer":0,"byteOffset":9816,"byteLength":192,"target":34962,"byteStride":8},{"buffer":0,"byteOffset":10008,"byteLength":72,"target":34963},{"buffer":0,"byteOffset":10080,"byteLength":288,"target":34962,"byteStride":12},{"buffer":0,"byteOffset":10368,"byteLength":288,"target":34962,"byteStride":12},{"buffer":0,"byteOffset":10656,"byteLength":192,"target":34962,"byteStride":8},{"buffer":0,"byteOffset":10848,"byteLength":72,"target":34963},{"buffer":0,"byteOffset":10920,"byteLength":288,"target":34962,"byteStride":12},{"buffer":0,"byteOffset":11208,"byteLength":288,"target":34962,"byteStride":12},{"buffer":0,"byteOffset":11496,"byteLength":192,"target":34962,"byteStride":8},{"buffer":0,"byteOffset":11688,"byteLength":72,"target":34963},{"buffer":0,"byteOffset":11760,"byteLength":288,"target":34962,"byteStride":12},{"buffer":0,"byteOffset":12048,"byteLength":288,"target":34962,"byteStride":12},{"buffer":0,"byteOffset":12336,"byteLength":192,"target":34962,"byteStride":8},{"buffer":0,"byteOffset":12528,"byteLength":72,"target":34963},{"buffer":0,"byteOffset":12600,"byteLength":288,"target":34962,"byteStride":12},{"buffer":0,"byteOffset":12888,"byteLength":288,"target":34962,"byteStride":12},{"buffer":0,"byteOffset":13176,"byteLength":192,"target":34962,"byteStride":8},{"buffer":0,"byteOffset":13368,"byteLength":72,"target":34963},{"buffer":0,"byteOffset":13440,"byteLength":288,"target":34962,"byteStride":12},{"buffer":0,"byteOffset":13728,"byteLength":288,"target":34962,"byteStride":12},{"buffer":0,"byteOffset":14016,"byteLength":192,"target":34962,"byteStride":8},{"buffer":0,"byteOffset":14208,"byteLength":72,"target":34963},{"buffer":0,"byteOffset":14280,"byteLength":288,"target":34962,"byteStride":12},{"buffer":0,"byteOffset":14568,"byteLength":288,"target":34962,"byteStride":12},{"buffer":0,"byteOffset":14856,"byteLength":192,"target":34962,"byteStride":8},{"buffer":0,"byteOffset":15048,"byteLength":72,"target":34963},{"buffer":0,"byteOffset":15120,"byteLength":288,"target":34962,"byteStride":12},{"buffer":0,"byteOffset":15408,"byteLength":288,"target":34962,"byteStride":12},{"buffer":0,"byteOffset":15696,"byteLength":192,"target":34962,"byteStride":8},{"buffer":0,"byteOffset":15888,"byteLength":72,"target":34963},{"buffer":0,"byteOffset":15960,"byteLength":288,"target":34962,"byteStride":12},{"buffer":0,"byteOffset":16248,"byteLength":288,"target":34962,"byteStride":12},{"buffer":0,"byteOffset":16536,"byteLength":192,"target":34962,"byteStride":8},{"buffer":0,"byteOffset":16728,"byteLength":72,"target":34963},{"buffer":0,"byteOffset":16800,"byteLength":288,"target":34962,"byteStride":12},{"buffer":0,"byteOffset":17088,"byteLength":288,"target":34962,"byteStride":12},{"buffer":0,"byteOffset":17376,"byteLength":192,"target":34962,"byteStride":8},{"buffer":0,"byteOffset":17568,"byteLength":72,"target":34963},{"buffer":0,"byteOffset":17640,"byteLength":288,"target":34962,"byteStride":12},{"buffer":0,"byteOffset":17928,"byteLength":288,"target":34962,"byteStride":12},{"buffer":0,"byteOffset":18216,"byteLength":192,"target":34962,"byteStride":8},{"buffer":0,"byteOffset":18408,"byteLength":72,"target":34963},{"buffer":0,"byteOffset":18480,"byteLength":288,"target":34962,"byteStride":12},{"buffer":0,"byteOffset":18768,"byteLength":288,"target":34962,"byteStride":12},{"buffer":0,"byteOffset":19056,"byteLength":192,"target":34962,"byteStride":8},{"buffer":0,"byteOffset":19248,"byteLength":72,"target":34963},{"buffer":0,"byteOffset":19320,"byteLength":288,"target":34962,"byteStride":12},{"buffer":0,"byteOffset":19608,"byteLength":288,"target":34962,"byteStride":12},{"buffer":0,"byteOffset":19896,"byteLength":192,"target":34962,"byteStride":8},{"buffer":0,"byteOffset":20088,"byteLength":72,"target":34963},{"buffer":0,"byteOffset":20160,"byteLength":288,"target":34962,"byteStride":12},{"buffer":0,"byteOffset":20448,"byteLength":288,"target":34962,"byteStride":12},{"buffer":0,"byteOffset":20736,"byteLength":192,"target":34962,"byteStride":8},{"buffer":0,"byteOffset":20928,"byteLength":72,"target":34963},{"buffer":0,"byteOffset":21000,"byteLength":288,"target":34962,"byteStride":12},{"buffer":0,"byteOffset":21288,"byteLength":288,"target":34962,"byteStride":12},{"buffer":0,"byteOffset":21576,"byteLength":192,"target":34962,"byteStride":8},{"buffer":0,"byteOffset":21768,"byteLength":72,"target":34963},{"buffer":0,"byteOffset":21840,"byteLength":288,"target":34962,"byteStride":12},{"buffer":0,"byteOffset":22128,"byteLength":288,"target":34962,"byteStride":12},{"buffer":0,"byteOffset":22416,"byteLength":192,"target":34962,"byteStride":8},{"buffer":0,"byteOffset":22608,"byteLength":72,"target":34963},{"buffer":0,"byteOffset":22680,"byteLength":288,"target":34962,"byteStride":12},{"buffer":0,"byteOffset":22968,"byteLength":288,"target":34962,"byteStride":12},{"buffer":0,"byteOffset":23256,"byteLength":192,"target":34962,"byteStride":8},{"buffer":0,"byteOffset":23448,"byteLength":72,"target":34963},{"buffer":0,"byteOffset":23520,"byteLength":288,"target":34962,"byteStride":12},{"buffer":0,"byteOffset":23808,"byteLength":288,"target":34962,"byteStride":12},{"buffer":0,"byteOffset":24096,"byteLength":192,"target":34962,"byteStride":8},{"buffer":0,"byteOffset":24288,"byteLength":72,"target":34963},{"buffer":0,"byteOffset":24360,"byteLength":288,"target":34962,"byteStride":12},{"buffer":0,"byteOffset":24648,"byteLength":288,"target":34962,"byteStride":12},{"buffer":0,"byteOffset":24936,"byteLength":192,"target":34962,"byteStride":8},{"buffer":0,"byteOffset":25128,"byteLength":72,"target":34963},{"buffer":0,"byteOffset":25200,"byteLength":288,"target":34962,"byteStride":12},{"buffer":0,"byteOffset":25488,"byteLength":288,"target":34962,"byteStride":12},{"buffer":0,"byteOffset":25776,"byteLength":192,"target":34962,"byteStride":8},{"buffer":0,"byteOffset":25968,"byteLength":72,"target":34963},{"buffer":0,"byteOffset":26040,"byteLength":288,"target":34962,"byteStride":12},{"buffer":0,"byteOffset":26328,"byteLength":288,"target":34962,"byteStride":12},{"buffer":0,"byteOffset":26616,"byteLength":192,"target":34962,"byteStride":8},{"buffer":0,"byteOffset":26808,"byteLength":72,"target":34963},{"buffer":0,"byteOffset":26880,"byteLength":288,"target":34962,"byteStride":12},{"buffer":0,"byteOffset":27168,"byteLength":288,"target":34962,"byteStride":12},{"buffer":0,"byteOffset":27456,"byteLength":192,"target":34962,"byteStride":8},{"buffer":0,"byteOffset":27648,"byteLength":72,"target":34963},{"buffer":0,"byteOffset":27720,"byteLength":288,"target":34962,"byteStride":12},{"buffer":0,"byteOffset":28008,"byteLength":288,"target":34962,"byteStride":12},{"buffer":0,"byteOffset":28296,"byteLength":192,"target":34962,"byteStride":8},{"buffer":0,"byteOffset":28488,"byteLength":72,"target":34963},{"buffer":0,"byteOffset":28560,"byteLength":288,"target":34962,"byteStride":12},{"buffer":0,"byteOffset":28848,"byteLength":288,"target":34962,"byteStride":12},{"buffer":0,"byteOffset":29136,"byteLength":192,"target":34962,"byteStride":8},{"buffer":0,"byteOffset":29328,"byteLength":72,"target":34963},{"buffer":0,"byteOffset":29400,"byteLength":288,"target":34962,"byteStride":12},{"buffer":0,"byteOffset":29688,"byteLength":288,"target":34962,"byteStride":12},{"buffer":0,"byteOffset":29976,"byteLength":192,"target":34962,"byteStride":8},{"buffer":0,"byteOffset":30168,"byteLength":72,"target":34963},{"buffer":0,"byteOffset":30240,"byteLength":288,"target":34962,"byteStride":12},{"buffer":0,"byteOffset":30528,"byteLength":288,"target":34962,"byteStride":12},{"buffer":0,"byteOffset":30816,"byteLength":192,"target":34962,"byteStride":8},{"buffer":0,"byteOffset":31008,"byteLength":72,"target":34963},{"buffer":0,"byteOffset":31080,"byteLength":288,"target":34962,"byteStride":12},{"buffer":0,"byteOffset":31368,"byteLength":288,"target":34962,"byteStride":12},{"buffer":0,"byteOffset":31656,"byteLength":192,"target":34962,"byteStride":8},{"buffer":0,"byteOffset":31848,"byteLength":72,"target":34963},{"buffer":0,"byteOffset":31920,"byteLength":288,"target":34962,"byteStride":12},{"buffer":0,"byteOffset":32208,"byteLength":288,"target":34962,"byteStride":12},{"buffer":0,"byteOffset":32496,"byteLength":192,"target":34962,"byteStride":8},{"buffer":0,"byteOffset":32688,"byteLength":72,"target":34963},{"buffer":0,"byteOffset":32760,"byteLength":288,"target":34962,"byteStride":12},{"buffer":0,"byteOffset":33048,"byteLength":288,"target":34962,"byteStride":12},{"buffer":0,"byteOffset":33336,"byteLength":192,"target":34962,"byteStride":8},{"buffer":0,"byteOffset":33528,"byteLength":72,"target":34963},{"buffer":0,"byteOffset":33600,"byteLength":288,"target":34962,"byteStride":12},{"buffer":0,"byteOffset":33888,"byteLength":288,"target":34962,"byteStride":12},{"buffer":0,"byteOffset":34176,"byteLength":192,"target":34962,"byteStride":8},{"buffer":0,"byteOffset":34368,"byteLength":72,"target":34963},{"buffer":0,"byteOffset":34440,"byteLength":288,"target":34962,"byteStride":12},{"buffer":0,"byteOffset":34728,"byteLength":288,"target":34962,"byteStride":12},{"buffer":0,"byteOffset":35016,"byteLength":192,"target":34962,"byteStride":8},{"buffer":0,"byteOffset":35208,"byteLength":72,"target":34963},{"buffer":0,"byteOffset":35280,"byteLength":288,"target":34962,"byteStride":12},{"buffer":0,"byteOffset":35568,"byteLength":288,"target":34962,"byteStride":12},{"buffer":0,"byteOffset":35856,"byteLength":192,"target":34962,"byteStride":8},{"buffer":0,"byteOffset":36048,"byteLength":72,"target":34963},{"buffer":0,"byteOffset":36120,"byteLength":288,"target":34962,"byteStride":12},{"buffer":0,"byteOffset":36408,"byteLength":288,"target":34962,"byteStride":12},{"buffer":0,"byteOffset":36696,"byteLength":192,"target":34962,"byteStride":8},{"buffer":0,"byteOffset":36888,"byteLength":72,"target":34963},{"buffer":0,"byteOffset":36960,"byteLength":288,"target":34962,"byteStride":12},{"buffer":0,"byteOffset":37248,"byteLength":288,"target":34962,"byteStride":12},{"buffer":0,"byteOffset":37536,"byteLength":192,"target":34962,"byteStride":8},{"buffer":0,"byteOffset":37728,"byteLength":72,"target":34963},{"buffer":0,"byteOffset":37800,"byteLength":288,"target":34962,"byteStride":12},{"buffer":0,"byteOffset":38088,"byteLength":288,"target":34962,"byteStride":12},{"buffer":0,"byteOffset":38376,"byteLength":192,"target":34962,"byteStride":8},{"buffer":0,"byteOffset":38568,"byteLength":72,"target":34963},{"buffer":0,"byteOffset":38640,"byteLength":288,"target":34962,"byteStride":12},{"buffer":0,"byteOffset":38928,"byteLength":288,"target":34962,"byteStride":12},{"buffer":0,"byteOffset":39216,"byteLength":192,"target":34962,"byteStride":8},{"buffer":0,"byteOffset":39408,"byteLength":72,"target":34963},{"buffer":0,"byteOffset":39480,"byteLength":288,"target":34962,"byteStride":12},{"buffer":0,"byteOffset":39768,"byteLength":288,"target":34962,"byteStride":12},{"buffer":0,"byteOffset":40056,"byteLength":192,"target":34962,"byteStride":8},{"buffer":0,"byteOffset":40248,"byteLength":72,"target":34963},{"buffer":0,"byteOffset":40320,"byteLength":288,"target":34962,"byteStride":12},{"buffer":0,"byteOffset":40608,"byteLength":288,"target":34962,"byteStride":12},{"buffer":0,"byteOffset":40896,"byteLength":192,"target":34962,"byteStride":8},{"buffer":0,"byteOffset":41088,"byteLength":72,"target":34963},{"buffer":0,"byteOffset":41160,"byteLength":288,"target":34962,"byteStride":12},{"buffer":0,"byteOffset":41448,"byteLength":288,"target":34962,"byteStride":12},{"buffer":0,"byteOffset":41736,"byteLength":192,"target":34962,"byteStride":8},{"buffer":0,"byteOffset":41928,"byteLength":72,"target":34963},{"buffer":0,"byteOffset":42000,"byteLength":288,"target":34962,"byteStride":12},{"buffer":0,"byteOffset":42288,"byteLength":288,"target":34962,"byteStride":12},{"buffer":0,"byteOffset":42576,"byteLength":192,"target":34962,"byteStride":8},{"buffer":0,"byteOffset":42768,"byteLength":72,"target":34963},{"buffer":0,"byteOffset":42840,"byteLength":288,"target":34962,"byteStride":12},{"buffer":0,"byteOffset":43128,"byteLength":288,"target":34962,"byteStride":12},{"buffer":0,"byteOffset":43416,"byteLength":192,"target":34962,"byteStride":8},{"buffer":0,"byteOffset":43608,"byteLength":72,"target":34963},{"buffer":0,"byteOffset":43680,"byteLength":288,"target":34962,"byteStride":12},{"buffer":0,"byteOffset":43968,"byteLength":288,"target":34962,"byteStride":12},{"buffer":0,"byteOffset":44256,"byteLength":192,"target":34962,"byteStride":8},{"buffer":0,"byteOffset":44448,"byteLength":72,"target":34963},{"buffer":0,"byteOffset":44520,"byteLength":288,"target":34962,"byteStride":12},{"buffer":0,"byteOffset":44808,"byteLength":288,"target":34962,"byteStride":12},{"buffer":0,"byteOffset":45096,"byteLength":192,"target":34962,"byteStride":8},{"buffer":0,"byteOffset":45288,"byteLength":72,"target":34963},{"buffer":0,"byteOffset":45360,"byteLength":288,"target":34962,"byteStride":12},{"buffer":0,"byteOffset":45648,"byteLength":288,"target":34962,"byteStride":12},{"buffer":0,"byteOffset":45936,"byteLength":192,"target":34962,"byteStride":8},{"buffer":0,"byteOffset":46128,"byteLength":72,"target":34963},{"buffer":0,"byteOffset":46200,"byteLength":288,"target":34962,"byteStride":12},{"buffer":0,"byteOffset":46488,"byteLength":288,"target":34962,"byteStride":12},{"buffer":0,"byteOffset":46776,"byteLength":192,"target":34962,"byteStride":8},{"buffer":0,"byteOffset":46968,"byteLength":72,"target":34963},{"buffer":0,"byteOffset":47040,"byteLength":288,"target":34962,"byteStride":12},{"buffer":0,"byteOffset":47328,"byteLength":288,"target":34962,"byteStride":12},{"buffer":0,"byteOffset":47616,"byteLength":192,"target":34962,"byteStride":8},{"buffer":0,"byteOffset":47808,"byteLength":72,"target":34963},{"buffer":0,"byteOffset":47880,"byteLength":288,"target":34962,"byteStride":12},{"buffer":0,"byteOffset":48168,"byteLength":288,"target":34962,"byteStride":12},{"buffer":0,"byteOffset":48456,"byteLength":192,"target":34962,"byteStride":8},{"buffer":0,"byteOffset":48648,"byteLength":72,"target":34963},{"buffer":0,"byteOffset":48720,"byteLength":288,"target":34962,"byteStride":12},{"buffer":0,"byteOffset":49008,"byteLength":288,"target":34962,"byteStride":12},{"buffer":0,"byteOffset":49296,"byteLength":192,"target":34962,"byteStride":8},{"buffer":0,"byteOffset":49488,"byteLength":72,"target":34963},{"buffer":0,"byteOffset":49560,"byteLength":288,"target":34962,"byteStride":12},{"buffer":0,"byteOffset":49848,"byteLength":288,"target":34962,"byteStride":12},{"buffer":0,"byteOffset":50136,"byteLength":192,"target":34962,"byteStride":8},{"buffer":0,"byteOffset":50328,"byteLength":72,"target":34963},{"buffer":0,"byteOffset":50400,"byteLength":288,"target":34962,"byteStride":12},{"buffer":0,"byteOffset":50688,"byteLength":288,"target":34962,"byteStride":12},{"buffer":0,"byteOffset":50976,"byteLength":192,"target":34962,"byteStride":8},{"buffer":0,"byteOffset":51168,"byteLength":72,"target":34963},{"buffer":0,"byteOffset":51240,"byteLength":288,"target":34962,"byteStride":12},{"buffer":0,"byteOffset":51528,"byteLength":288,"target":34962,"byteStride":12},{"buffer":0,"byteOffset":51816,"byteLength":192,"target":34962,"byteStride":8},{"buffer":0,"byteOffset":52008,"byteLength":72,"target":34963},{"buffer":0,"byteOffset":52080,"byteLength":288,"target":34962,"byteStride":12},{"buffer":0,"byteOffset":52368,"byteLength":288,"target":34962,"byteStride":12},{"buffer":0,"byteOffset":52656,"byteLength":192,"target":34962,"byteStride":8},{"buffer":0,"byteOffset":52848,"byteLength":72,"target":34963},{"buffer":0,"byteOffset":52920,"byteLength":288,"target":34962,"byteStride":12},{"buffer":0,"byteOffset":53208,"byteLength":288,"target":34962,"byteStride":12},{"buffer":0,"byteOffset":53496,"byteLength":192,"target":34962,"byteStride":8},{"buffer":0,"byteOffset":53688,"byteLength":72,"target":34963},{"buffer":0,"byteOffset":53760,"byteLength":1776,"target":34962,"byteStride":12},{"buffer":0,"byteOffset":55536,"byteLength":1776,"target":34962,"byteStride":12},{"buffer":0,"byteOffset":57312,"byteLength":1184,"target":34962,"byteStride":8},{"buffer":0,"byteOffset":58496,"byteLength":576,"target":34963},{"buffer":0,"byteOffset":59072,"byteLength":288,"target":34962,"byteStride":12},{"buffer":0,"byteOffset":59360,"byteLength":288,"target":34962,"byteStride":12},{"buffer":0,"byteOffset":59648,"byteLength":192,"target":34962,"byteStride":8},{"buffer":0,"byteOffset":59840,"byteLength":72,"target":34963},{"buffer":0,"byteOffset":59912,"byteLength":288,"target":34962,"byteStride":12},{"buffer":0,"byteOffset":60200,"byteLength":288,"target":34962,"byteStride":12},{"buffer":0,"byteOffset":60488,"byteLength":192,"target":34962,"byteStride":8},{"buffer":0,"byteOffset":60680,"byteLength":72,"target":34963},{"buffer":0,"byteOffset":60752,"byteLength":288,"target":34962,"byteStride":12},{"buffer":0,"byteOffset":61040,"byteLength":288,"target":34962,"byteStride":12},{"buffer":0,"byteOffset":61328,"byteLength":192,"target":34962,"byteStride":8},{"buffer":0,"byteOffset":61520,"byteLength":72,"target":34963},{"buffer":0,"byteOffset":61592,"byteLength":288,"target":34962,"byteStride":12},{"buffer":0,"byteOffset":61880,"byteLength":288,"target":34962,"byteStride":12},{"buffer":0,"byteOffset":62168,"byteLength":192,"target":34962,"byteStride":8},{"buffer":0,"byteOffset":62360,"byteLength":72,"target":34963},{"buffer":0,"byteOffset":62432,"byteLength":288,"target":34962,"byteStride":12},{"buffer":0,"byteOffset":62720,"byteLength":288,"target":34962,"byteStride":12},{"buffer":0,"byteOffset":63008,"byteLength":192,"target":34962,"byteStride":8},{"buffer":0,"byteOffset":63200,"byteLength":72,"target":34963},{"buffer":0,"byteOffset":63272,"byteLength":1200,"target":34962,"byteStride":12},{"buffer":0,"byteOffset":64472,"byteLength":1200,"target":34962,"byteStride":12},{"buffer":0,"byteOffset":65672,"byteLength":800,"target":34962,"byteStride":8},{"buffer":0,"byteOffset":66472,"byteLength":384,"target":34963}],"buffers":[{"byteLength":66856,"uri":"data:application/octet-stream;base64,"}],"accessors":[{"bufferView":0,"componentType":5126,"count":24,"max":[1.100000023841858,0.008999999612569809,0.7099999785423279],"min":[-1.100000023841858,-0.008999999612569809,-0.7099999785423279],"type":"VEC3"},{"bufferView":1,"componentType":5126,"count":24,"max":[1,1,1],"min":[-1,-1,-1],"type":"VEC3"},{"bufferView":2,"componentType":5126,"count":24,"max":[1,1],"min":[0,0],"type":"VEC2"},{"bufferView":3,"componentType":5123,"count":36,"max":[23],"min":[0],"type":"SCALAR"},{"bufferView":4,"componentType":5126,"count":24,"max":[1.059999942779541,0.00800000037997961,0.6299999952316284],"min":[-1.059999942779541,-0.00800000037997961,-0.6299999952316284],"type":"VEC3"},{"bufferView":5,"componentType":5126,"count":24,"max":[1,1,1],"min":[-1,-1,-1],"type":"VEC3"},{"bufferView":6,"componentType":5126,"count":24,"max":[1,1],"min":[0,0],"type":"VEC2"},{"bufferView":7,"componentType":5123,"count":36,"max":[23],"min":[0],"type":"SCALAR"},{"bufferView":8,"componentType":5126,"count":24,"max":[0.8100000023841858,0.001500000013038516,0.3499999940395355],"min":[-0.8100000023841858,-0.001500000013038516,-0.3499999940395355],"type":"VEC3"},{"bufferView":9,"componentType":5126,"count":24,"max":[1,1,1],"min":[-1,-1,-1],"type":"VEC3"},{"bufferView":10,"componentType":5126,"count":24,"max":[1,1],"min":[0,0],"type":"VEC2"},{"bufferView":11,"componentType":5123,"count":36,"max":[23],"min":[0],"type":"SCALAR"},{"bufferView":12,"componentType":5126,"count":24,"max":[0.41999998688697815,0.0012499999720603228,0.25999999046325684],"min":[-0.41999998688697815,-0.0012499999720603228,-0.25999999046325684],"type":"VEC3"},{"bufferView":13,"componentType":5126,"count":24,"max":[1,1,1],"min":[-1,-1,-1],"type":"VEC3"},{"bufferView":14,"componentType":5126,"count":24,"max":[1,1],"min":[0,0],"type":"VEC2"},{"bufferView":15,"componentType":5123,"count":36,"max":[23],"min":[0],"type":"SCALAR"},{"bufferView":16,"componentType":5126,"count":24,"max":[0.04100000113248825,0.0035000001080334187,0.03700000047683716],"min":[-0.04100000113248825,-0.0035000001080334187,-0.03700000047683716],"type":"VEC3"},{"bufferView":17,"componentType":5126,"count":24,"max":[1,1,1],"min":[-1,-1,-1],"type":"VEC3"},{"bufferView":18,"componentType":5126,"count":24,"max":[1,1],"min":[0,0],"type":"VEC2"},{"bufferView":19,"componentType":5123,"count":36,"max":[23],"min":[0],"type":"SCALAR"},{"bufferView":20,"componentType":5126,"count":24,"max":[0.04100000113248825,0.0035000001080334187,0.03700000047683716],"min":[-0.04100000113248825,-0.0035000001080334187,-0.03700000047683716],"type":"VEC3"},{"bufferView":21,"componentType":5126,"count":24,"max":[1,1,1],"min":[-1,-1,-1],"type":"VEC3"},{"bufferView":22,"componentType":5126,"count":24,"max":[1,1],"min":[0,0],"type":"VEC2"},{"bufferView":23,"componentType":5123,"count":36,"max":[23],"min":[0],"type":"SCALAR"},{"bufferView":24,"componentType":5126,"count":24,"max":[0.04100000113248825,0.0035000001080334187,0.03700000047683716],"min":[-0.04100000113248825,-0.0035000001080334187,-0.03700000047683716],"type":"VEC3"},{"bufferView":25,"componentType":5126,"count":24,"max":[1,1,1],"min":[-1,-1,-1],"type":"VEC3"},{"bufferView":26,"componentType":5126,"count":24,"max":[1,1],"min":[0,0],"type":"VEC2"},{"bufferView":27,"componentType":5123,"count":36,"max":[23],"min":[0],"type":"SCALAR"},{"bufferView":28,"componentType":5126,"count":24,"max":[0.04100000113248825,0.0035000001080334187,0.03700000047683716],"min":[-0.04100000113248825,-0.0035000001080334187,-0.03700000047683716],"type":"VEC3"},{"bufferView":29,"componentType":5126,"count":24,"max":[1,1,1],"min":[-1,-1,-1],"type":"VEC3"},{"bufferView":30,"componentType":5126,"count":24,"max":[1,1],"min":[0,0],"type":"VEC2"},{"bufferView":31,"componentType":5123,"count":36,"max":[23],"min":[0],"type":"SCALAR"},{"bufferView":32,"componentType":5126,"count":24,"max":[0.04100000113248825,0.0035000001080334187,0.03700000047683716],"min":[-0.04100000113248825,-0.0035000001080334187,-0.03700000047683716],"type":"VEC3"},{"bufferView":33,"componentType":5126,"count":24,"max":[1,1,1],"min":[-1,-1,-1],"type":"VEC3"},{"bufferView":34,"componentType":5126,"count":24,"max":[1,1],"min":[0,0],"type":"VEC2"},{"bufferView":35,"componentType":5123,"count":36,"max":[23],"min":[0],"type":"SCALAR"},{"bufferView":36,"componentType":5126,"count":24,"max":[0.04100000113248825,0.0035000001080334187,0.03700000047683716],"min":[-0.04100000113248825,-0.0035000001080334187,-0.03700000047683716],"type":"VEC3"},{"bufferView":37,"componentType":5126,"count":24,"max":[1,1,1],"min":[-1,-1,-1],"type":"VEC3"},{"bufferView":38,"componentType":5126,"count":24,"max":[1,1],"min":[0,0],"type":"VEC2"},{"bufferView":39,"componentType":5123,"count":36,"max":[23],"min":[0],"type":"SCALAR"},{"bufferView":40,"componentType":5126,"count":24,"max":[0.04100000113248825,0.0035000001080334187,0.03700000047683716],"min":[-0.04100000113248825,-0.0035000001080334187,-0.03700000047683716],"type":"VEC3"},{"bufferView":41,"componentType":5126,"count":24,"max":[1,1,1],"min":[-1,-1,-1],"type":"VEC3"},{"bufferView":42,"componentType":5126,"count":24,"max":[1,1],"min":[0,0],"type":"VEC2"},{"bufferView":43,"componentType":5123,"count":36,"max":[23],"min":[0],"type":"SCALAR"},{"bufferView":44,"componentType":5126,"count":24,"max":[0.04100000113248825,0.0035000001080334187,0.03700000047683716],"min":[-0.04100000113248825,-0.0035000001080334187,-0.03700000047683716],"type":"VEC3"},{"bufferView":45,"componentType":5126,"count":24,"max":[1,1,1],"min":[-1,-1,-1],"type":"VEC3"},{"bufferView":46,"componentType":5126,"count":24,"max":[1,1],"min":[0,0],"type":"VEC2"},{"bufferView":47,"componentType":5123,"count":36,"max":[23],"min":[0],"type":"SCALAR"},{"bufferView":48,"componentType":5126,"count":24,"max":[0.04100000113248825,0.0035000001080334187,0.03700000047683716],"min":[-0.04100000113248825,-0.0035000001080334187,-0.03700000047683716],"type":"VEC3"},{"bufferView":49,"componentType":5126,"count":24,"max":[1,1,1],"min":[-1,-1,-1],"type":"VEC3"},{"bufferView":50,"componentType":5126,"count":24,"max":[1,1],"min":[0,0],"type":"VEC2"},{"bufferView":51,"componentType":5123,"count":36,"max":[23],"min":[0],"type":"SCALAR"},{"bufferView":52,"componentType":5126,"count":24,"max":[0.04100000113248825,0.0035000001080334187,0.03700000047683716],"min":[-0.04100000113248825,-0.0035000001080334187,-0.03700000047683716],"type":"VEC3"},{"bufferView":53,"componentType":5126,"count":24,"max":[1,1,1],"min":[-1,-1,-1],"type":"VEC3"},{"bufferView":54,"componentType":5126,"count":24,"max":[1,1],"min":[0,0],"type":"VEC2"},{"bufferView":55,"componentType":5123,"count":36,"max":[23],"min":[0],"type":"SCALAR"},{"bufferView":56,"componentType":5126,"count":24,"max":[0.04100000113248825,0.0035000001080334187,0.03700000047683716],"min":[-0.04100000113248825,-0.0035000001080334187,-0.03700000047683716],"type":"VEC3"},{"bufferView":57,"componentType":5126,"count":24,"max":[1,1,1],"min":[-1,-1,-1],"type":"VEC3"},{"bufferView":58,"componentType":5126,"count":24,"max":[1,1],"min":[0,0],"type":"VEC2"},{"bufferView":59,"componentType":5123,"count":36,"max":[23],"min":[0],"type":"SCALAR"},{"bufferView":60,"componentType":5126,"count":24,"max":[0.04100000113248825,0.0035000001080334187,0.03700000047683716],"min":[-0.04100000113248825,-0.0035000001080334187,-0.03700000047683716],"type":"VEC3"},{"bufferView":61,"componentType":5126,"count":24,"max":[1,1,1],"min":[-1,-1,-1],"type":"VEC3"},{"bufferView":62,"componentType":5126,"count":24,"max":[1,1],"min":[0,0],"type":"VEC2"},{"bufferView":63,"componentType":5123,"count":36,"max":[23],"min":[0],"type":"SCALAR"},{"bufferView":64,"componentType":5126,"count":24,"max":[0.04100000113248825,0.0035000001080334187,0.03700000047683716],"min":[-0.04100000113248825,-0.0035000001080334187,-0.03700000047683716],"type":"VEC3"},{"bufferView":65,"componentType":5126,"count":24,"max":[1,1,1],"min":[-1,-1,-1],"type":"VEC3"},{"bufferView":66,"componentType":5126,"count":24,"max":[1,1],"min":[0,0],"type":"VEC2"},{"bufferView":67,"componentType":5123,"count":36,"max":[23],"min":[0],"type":"SCALAR"},{"bufferView":68,"componentType":5126,"count":24,"max":[0.04100000113248825,0.0035000001080334187,0.03700000047683716],"min":[-0.04100000113248825,-0.0035000001080334187,-0.03700000047683716],"type":"VEC3"},{"bufferView":69,"componentType":5126,"count":24,"max":[1,1,1],"min":[-1,-1,-1],"type":"VEC3"},{"bufferView":70,"componentType":5126,"count":24,"max":[1,1],"min":[0,0],"type":"VEC2"},{"bufferView":71,"componentType":5123,"count":36,"max":[23],"min":[0],"type":"SCALAR"},{"bufferView":72,"componentType":5126,"count":24,"max":[0.04100000113248825,0.0035000001080334187,0.03700000047683716],"min":[-0.04100000113248825,-0.0035000001080334187,-0.03700000047683716],"type":"VEC3"},{"bufferView":73,"componentType":5126,"count":24,"max":[1,1,1],"min":[-1,-1,-1],"type":"VEC3"},{"bufferView":74,"componentType":5126,"count":24,"max":[1,1],"min":[0,0],"type":"VEC2"},{"bufferView":75,"componentType":5123,"count":36,"max":[23],"min":[0],"type":"SCALAR"},{"bufferView":76,"componentType":5126,"count":24,"max":[0.04100000113248825,0.0035000001080334187,0.03700000047683716],"min":[-0.04100000113248825,-0.0035000001080334187,-0.03700000047683716],"type":"VEC3"},{"bufferView":77,"componentType":5126,"count":24,"max":[1,1,1],"min":[-1,-1,-1],"type":"VEC3"},{"bufferView":78,"componentType":5126,"count":24,"max":[1,1],"min":[0,0],"type":"VEC2"},{"bufferView":79,"componentType":5123,"count":36,"max":[23],"min":[0],"type":"SCALAR"},{"bufferView":80,"componentType":5126,"count":24,"max":[0.04100000113248825,0.0035000001080334187,0.03700000047683716],"min":[-0.04100000113248825,-0.0035000001080334187,-0.03700000047683716],"type":"VEC3"},{"bufferView":81,"componentType":5126,"count":24,"max":[1,1,1],"min":[-1,-1,-1],"type":"VEC3"},{"bufferView":82,"componentType":5126,"count":24,"max":[1,1],"min":[0,0],"type":"VEC2"},{"bufferView":83,"componentType":5123,"count":36,"max":[23],"min":[0],"type":"SCALAR"},{"bufferView":84,"componentType":5126,"count":24,"max":[0.04100000113248825,0.0035000001080334187,0.03700000047683716],"min":[-0.04100000113248825,-0.0035000001080334187,-0.03700000047683716],"type":"VEC3"},{"bufferView":85,"componentType":5126,"count":24,"max":[1,1,1],"min":[-1,-1,-1],"type":"VEC3"},{"bufferView":86,"componentType":5126,"count":24,"max":[1,1],"min":[0,0],"type":"VEC2"},{"bufferView":87,"componentType":5123,"count":36,"max":[23],"min":[0],"type":"SCALAR"},{"bufferView":88,"componentType":5126,"count":24,"max":[0.04100000113248825,0.0035000001080334187,0.03700000047683716],"min":[-0.04100000113248825,-0.0035000001080334187,-0.03700000047683716],"type":"VEC3"},{"bufferView":89,"componentType":5126,"count":24,"max":[1,1,1],"min":[-1,-1,-1],"type":"VEC3"},{"bufferView":90,"componentType":5126,"count":24,"max":[1,1],"min":[0,0],"type":"VEC2"},{"bufferView":91,"componentType":5123,"count":36,"max":[23],"min":[0],"type":"SCALAR"},{"bufferView":92,"componentType":5126,"count":24,"max":[0.04100000113248825,0.0035000001080334187,0.03700000047683716],"min":[-0.04100000113248825,-0.0035000001080334187,-0.03700000047683716],"type":"VEC3"},{"bufferView":93,"componentType":5126,"count":24,"max":[1,1,1],"min":[-1,-1,-1],"type":"VEC3"},{"bufferView":94,"componentType":5126,"count":24,"max":[1,1],"min":[0,0],"type":"VEC2"},{"bufferView":95,"componentType":5123,"count":36,"max":[23],"min":[0],"type":"SCALAR"},{"bufferView":96,"componentType":5126,"count":24,"max":[0.04100000113248825,0.0035000001080334187,0.03700000047683716],"min":[-0.04100000113248825,-0.0035000001080334187,-0.03700000047683716],"type":"VEC3"},{"bufferView":97,"componentType":5126,"count":24,"max":[1,1,1],"min":[-1,-1,-1],"type":"VEC3"},{"bufferView":98,"componentType":5126,"count":24,"max":[1,1],"min":[0,0],"type":"VEC2"},{"bufferView":99,"componentType":5123,"count":36,"max":[23],"min":[0],"type":"SCALAR"},{"bufferView":100,"componentType":5126,"count":24,"max":[0.04100000113248825,0.0035000001080334187,0.03700000047683716],"min":[-0.04100000113248825,-0.0035000001080334187,-0.03700000047683716],"type":"VEC3"},{"bufferView":101,"componentType":5126,"count":24,"max":[1,1,1],"min":[-1,-1,-1],"type":"VEC3"},{"bufferView":102,"componentType":5126,"count":24,"max":[1,1],"min":[0,0],"type":"VEC2"},{"bufferView":103,"componentType":5123,"count":36,"max":[23],"min":[0],"type":"SCALAR"},{"bufferView":104,"componentType":5126,"count":24,"max":[0.04100000113248825,0.0035000001080334187,0.03700000047683716],"min":[-0.04100000113248825,-0.0035000001080334187,-0.03700000047683716],"type":"VEC3"},{"bufferView":105,"componentType":5126,"count":24,"max":[1,1,1],"min":[-1,-1,-1],"type":"VEC3"},{"bufferView":106,"componentType":5126,"count":24,"max":[1,1],"min":[0,0],"type":"VEC2"},{"bufferView":107,"componentType":5123,"count":36,"max":[23],"min":[0],"type":"SCALAR"},{"bufferView":108,"componentType":5126,"count":24,"max":[0.04100000113248825,0.0035000001080334187,0.03700000047683716],"min":[-0.04100000113248825,-0.0035000001080334187,-0.03700000047683716],"type":"VEC3"},{"bufferView":109,"componentType":5126,"count":24,"max":[1,1,1],"min":[-1,-1,-1],"type":"VEC3"},{"bufferView":110,"componentType":5126,"count":24,"max":[1,1],"min":[0,0],"type":"VEC2"},{"bufferView":111,"componentType":5123,"count":36,"max":[23],"min":[0],"type":"SCALAR"},{"bufferView":112,"componentType":5126,"count":24,"max":[0.04100000113248825,0.0035000001080334187,0.03700000047683716],"min":[-0.04100000113248825,-0.0035000001080334187,-0.03700000047683716],"type":"VEC3"},{"bufferView":113,"componentType":5126,"count":24,"max":[1,1,1],"min":[-1,-1,-1],"type":"VEC3"},{"bufferView":114,"componentType":5126,"count":24,"max":[1,1],"min":[0,0],"type":"VEC2"},{"bufferView":115,"componentType":5123,"count":36,"max":[23],"min":[0],"type":"SCALAR"},{"bufferView":116,"componentType":5126,"count":24,"max":[0.04100000113248825,0.0035000001080334187,0.03700000047683716],"min":[-0.04100000113248825,-0.0035000001080334187,-0.03700000047683716],"type":"VEC3"},{"bufferView":117,"componentType":5126,"count":24,"max":[1,1,1],"min":[-1,-1,-1],"type":"VEC3"},{"bufferView":118,"componentType":5126,"count":24,"max":[1,1],"min":[0,0],"type":"VEC2"},{"bufferView":119,"componentType":5123,"count":36,"max":[23],"min":[0],"type":"SCALAR"},{"bufferView":120,"componentType":5126,"count":24,"max":[0.04100000113248825,0.0035000001080334187,0.03700000047683716],"min":[-0.04100000113248825,-0.0035000001080334187,-0.03700000047683716],"type":"VEC3"},{"bufferView":121,"componentType":5126,"count":24,"max":[1,1,1],"min":[-1,-1,-1],"type":"VEC3"},{"bufferView":122,"componentType":5126,"count":24,"max":[1,1],"min":[0,0],"type":"VEC2"},{"bufferView":123,"componentType":5123,"count":36,"max":[23],"min":[0],"type":"SCALAR"},{"bufferView":124,"componentType":5126,"count":24,"max":[0.04100000113248825,0.0035000001080334187,0.03700000047683716],"min":[-0.04100000113248825,-0.0035000001080334187,-0.03700000047683716],"type":"VEC3"},{"bufferView":125,"componentType":5126,"count":24,"max":[1,1,1],"min":[-1,-1,-1],"type":"VEC3"},{"bufferView":126,"componentType":5126,"count":24,"max":[1,1],"min":[0,0],"type":"VEC2"},{"bufferView":127,"componentType":5123,"count":36,"max":[23],"min":[0],"type":"SCALAR"},{"bufferView":128,"componentType":5126,"count":24,"max":[0.04100000113248825,0.0035000001080334187,0.03700000047683716],"min":[-0.04100000113248825,-0.0035000001080334187,-0.03700000047683716],"type":"VEC3"},{"bufferView":129,"componentType":5126,"count":24,"max":[1,1,1],"min":[-1,-1,-1],"type":"VEC3"},{"bufferView":130,"componentType":5126,"count":24,"max":[1,1],"min":[0,0],"type":"VEC2"},{"bufferView":131,"componentType":5123,"count":36,"max":[23],"min":[0],"type":"SCALAR"},{"bufferView":132,"componentType":5126,"count":24,"max":[0.04100000113248825,0.0035000001080334187,0.03700000047683716],"min":[-0.04100000113248825,-0.0035000001080334187,-0.03700000047683716],"type":"VEC3"},{"bufferView":133,"componentType":5126,"count":24,"max":[1,1,1],"min":[-1,-1,-1],"type":"VEC3"},{"bufferView":134,"componentType":5126,"count":24,"max":[1,1],"min":[0,0],"type":"VEC2"},{"bufferView":135,"componentType":5123,"count":36,"max":[23],"min":[0],"type":"SCALAR"},{"bufferView":136,"componentType":5126,"count":24,"max":[0.04100000113248825,0.0035000001080334187,0.03700000047683716],"min":[-0.04100000113248825,-0.0035000001080334187,-0.03700000047683716],"type":"VEC3"},{"bufferView":137,"componentType":5126,"count":24,"max":[1,1,1],"min":[-1,-1,-1],"type":"VEC3"},{"bufferView":138,"componentType":5126,"count":24,"max":[1,1],"min":[0,0],"type":"VEC2"},{"bufferView":139,"componentType":5123,"count":36,"max":[23],"min":[0],"type":"SCALAR"},{"bufferView":140,"componentType":5126,"count":24,"max":[0.04100000113248825,0.0035000001080334187,0.03700000047683716],"min":[-0.04100000113248825,-0.0035000001080334187,-0.03700000047683716],"type":"VEC3"},{"bufferView":141,"componentType":5126,"count":24,"max":[1,1,1],"min":[-1,-1,-1],"type":"VEC3"},{"bufferView":142,"componentType":5126,"count":24,"max":[1,1],"min":[0,0],"type":"VEC2"},{"bufferView":143,"componentType":5123,"count":36,"max":[23],"min":[0],"type":"SCALAR"},{"bufferView":144,"componentType":5126,"count":24,"max":[0.04100000113248825,0.0035000001080334187,0.03700000047683716],"min":[-0.04100000113248825,-0.0035000001080334187,-0.03700000047683716],"type":"VEC3"},{"bufferView":145,"componentType":5126,"count":24,"max":[1,1,1],"min":[-1,-1,-1],"type":"VEC3"},{"bufferView":146,"componentType":5126,"count":24,"max":[1,1],"min":[0,0],"type":"VEC2"},{"bufferView":147,"componentType":5123,"count":36,"max":[23],"min":[0],"type":"SCALAR"},{"bufferView":148,"componentType":5126,"count":24,"max":[0.04100000113248825,0.0035000001080334187,0.03700000047683716],"min":[-0.04100000113248825,-0.0035000001080334187,-0.03700000047683716],"type":"VEC3"},{"bufferView":149,"componentType":5126,"count":24,"max":[1,1,1],"min":[-1,-1,-1],"type":"VEC3"},{"bufferView":150,"componentType":5126,"count":24,"max":[1,1],"min":[0,0],"type":"VEC2"},{"bufferView":151,"componentType":5123,"count":36,"max":[23],"min":[0],"type":"SCALAR"},{"bufferView":152,"componentType":5126,"count":24,"max":[0.04100000113248825,0.0035000001080334187,0.03700000047683716],"min":[-0.04100000113248825,-0.0035000001080334187,-0.03700000047683716],"type":"VEC3"},{"bufferView":153,"componentType":5126,"count":24,"max":[1,1,1],"min":[-1,-1,-1],"type":"VEC3"},{"bufferView":154,"componentType":5126,"count":24,"max":[1,1],"min":[0,0],"type":"VEC2"},{"bufferView":155,"componentType":5123,"count":36,"max":[23],"min":[0],"type":"SCALAR"},{"bufferView":156,"componentType":5126,"count":24,"max":[0.04100000113248825,0.0035000001080334187,0.03700000047683716],"min":[-0.04100000113248825,-0.0035000001080334187,-0.03700000047683716],"type":"VEC3"},{"bufferView":157,"componentType":5126,"count":24,"max":[1,1,1],"min":[-1,-1,-1],"type":"VEC3"},{"bufferView":158,"componentType":5126,"count":24,"max":[1,1],"min":[0,0],"type":"VEC2"},{"bufferView":159,"componentType":5123,"count":36,"max":[23],"min":[0],"type":"SCALAR"},{"bufferView":160,"componentType":5126,"count":24,"max":[0.04100000113248825,0.0035000001080334187,0.03700000047683716],"min":[-0.04100000113248825,-0.0035000001080334187,-0.03700000047683716],"type":"VEC3"},{"bufferView":161,"componentType":5126,"count":24,"max":[1,1,1],"min":[-1,-1,-1],"type":"VEC3"},{"bufferView":162,"componentType":5126,"count":24,"max":[1,1],"min":[0,0],"type":"VEC2"},{"bufferView":163,"componentType":5123,"count":36,"max":[23],"min":[0],"type":"SCALAR"},{"bufferView":164,"componentType":5126,"count":24,"max":[0.04100000113248825,0.0035000001080334187,0.03700000047683716],"min":[-0.04100000113248825,-0.0035000001080334187,-0.03700000047683716],"type":"VEC3"},{"bufferView":165,"componentType":5126,"count":24,"max":[1,1,1],"min":[-1,-1,-1],"type":"VEC3"},{"bufferView":166,"componentType":5126,"count":24,"max":[1,1],"min":[0,0],"type":"VEC2"},{"bufferView":167,"componentType":5123,"count":36,"max":[23],"min":[0],"type":"SCALAR"},{"bufferView":168,"componentType":5126,"count":24,"max":[0.04100000113248825,0.0035000001080334187,0.03700000047683716],"min":[-0.04100000113248825,-0.0035000001080334187,-0.03700000047683716],"type":"VEC3"},{"bufferView":169,"componentType":5126,"count":24,"max":[1,1,1],"min":[-1,-1,-1],"type":"VEC3"},{"bufferView":170,"componentType":5126,"count":24,"max":[1,1],"min":[0,0],"type":"VEC2"},{"bufferView":171,"componentType":5123,"count":36,"max":[23],"min":[0],"type":"SCALAR"},{"bufferView":172,"componentType":5126,"count":24,"max":[0.04100000113248825,0.0035000001080334187,0.03700000047683716],"min":[-0.04100000113248825,-0.0035000001080334187,-0.03700000047683716],"type":"VEC3"},{"bufferView":173,"componentType":5126,"count":24,"max":[1,1,1],"min":[-1,-1,-1],"type":"VEC3"},{"bufferView":174,"componentType":5126,"count":24,"max":[1,1],"min":[0,0],"type":"VEC2"},{"bufferView":175,"componentType":5123,"count":36,"max":[23],"min":[0],"type":"SCALAR"},{"bufferView":176,"componentType":5126,"count":24,"max":[0.04100000113248825,0.0035000001080334187,0.03700000047683716],"min":[-0.04100000113248825,-0.0035000001080334187,-0.03700000047683716],"type":"VEC3"},{"bufferView":177,"componentType":5126,"count":24,"max":[1,1,1],"min":[-1,-1,-1],"type":"VEC3"},{"bufferView":178,"componentType":5126,"count":24,"max":[1,1],"min":[0,0],"type":"VEC2"},{"bufferView":179,"componentType":5123,"count":36,"max":[23],"min":[0],"type":"SCALAR"},{"bufferView":180,"componentType":5126,"count":24,"max":[0.04100000113248825,0.0035000001080334187,0.03700000047683716],"min":[-0.04100000113248825,-0.0035000001080334187,-0.03700000047683716],"type":"VEC3"},{"bufferView":181,"componentType":5126,"count":24,"max":[1,1,1],"min":[-1,-1,-1],"type":"VEC3"},{"bufferView":182,"componentType":5126,"count":24,"max":[1,1],"min":[0,0],"type":"VEC2"},{"bufferView":183,"componentType":5123,"count":36,"max":[23],"min":[0],"type":"SCALAR"},{"bufferView":184,"componentType":5126,"count":24,"max":[0.04100000113248825,0.0035000001080334187,0.03700000047683716],"min":[-0.04100000113248825,-0.0035000001080334187,-0.03700000047683716],"type":"VEC3"},{"bufferView":185,"componentType":5126,"count":24,"max":[1,1,1],"min":[-1,-1,-1],"type":"VEC3"},{"bufferView":186,"componentType":5126,"count":24,"max":[1,1],"min":[0,0],"type":"VEC2"},{"bufferView":187,"componentType":5123,"count":36,"max":[23],"min":[0],"type":"SCALAR"},{"bufferView":188,"componentType":5126,"count":24,"max":[0.04100000113248825,0.0035000001080334187,0.03700000047683716],"min":[-0.04100000113248825,-0.0035000001080334187,-0.03700000047683716],"type":"VEC3"},{"bufferView":189,"componentType":5126,"count":24,"max":[1,1,1],"min":[-1,-1,-1],"type":"VEC3"},{"bufferView":190,"componentType":5126,"count":24,"max":[1,1],"min":[0,0],"type":"VEC2"},{"bufferView":191,"componentType":5123,"count":36,"max":[23],"min":[0],"type":"SCALAR"},{"bufferView":192,"componentType":5126,"count":24,"max":[0.04100000113248825,0.0035000001080334187,0.03700000047683716],"min":[-0.04100000113248825,-0.0035000001080334187,-0.03700000047683716],"type":"VEC3"},{"bufferView":193,"componentType":5126,"count":24,"max":[1,1,1],"min":[-1,-1,-1],"type":"VEC3"},{"bufferView":194,"componentType":5126,"count":24,"max":[1,1],"min":[0,0],"type":"VEC2"},{"bufferView":195,"componentType":5123,"count":36,"max":[23],"min":[0],"type":"SCALAR"},{"bufferView":196,"componentType":5126,"count":24,"max":[0.04100000113248825,0.0035000001080334187,0.03700000047683716],"min":[-0.04100000113248825,-0.0035000001080334187,-0.03700000047683716],"type":"VEC3"},{"bufferView":197,"componentType":5126,"count":24,"max":[1,1,1],"min":[-1,-1,-1],"type":"VEC3"},{"bufferView":198,"componentType":5126,"count":24,"max":[1,1],"min":[0,0],"type":"VEC2"},{"bufferView":199,"componentType":5123,"count":36,"max":[23],"min":[0],"type":"SCALAR"},{"bufferView":200,"componentType":5126,"count":24,"max":[0.04100000113248825,0.0035000001080334187,0.03700000047683716],"min":[-0.04100000113248825,-0.0035000001080334187,-0.03700000047683716],"type":"VEC3"},{"bufferView":201,"componentType":5126,"count":24,"max":[1,1,1],"min":[-1,-1,-1],"type":"VEC3"},{"bufferView":202,"componentType":5126,"count":24,"max":[1,1],"min":[0,0],"type":"VEC2"},{"bufferView":203,"componentType":5123,"count":36,"max":[23],"min":[0],"type":"SCALAR"},{"bufferView":204,"componentType":5126,"count":24,"max":[0.04100000113248825,0.0035000001080334187,0.03700000047683716],"min":[-0.04100000113248825,-0.0035000001080334187,-0.03700000047683716],"type":"VEC3"},{"bufferView":205,"componentType":5126,"count":24,"max":[1,1,1],"min":[-1,-1,-1],"type":"VEC3"},{"bufferView":206,"componentType":5126,"count":24,"max":[1,1],"min":[0,0],"type":"VEC2"},{"bufferView":207,"componentType":5123,"count":36,"max":[23],"min":[0],"type":"SCALAR"},{"bufferView":208,"componentType":5126,"count":24,"max":[0.05534999817609787,0.0035000001080334187,0.03700000047683716],"min":[-0.05534999817609787,-0.0035000001080334187,-0.03700000047683716],"type":"VEC3"},{"bufferView":209,"componentType":5126,"count":24,"max":[1,1,1],"min":[-1,-1,-1],"type":"VEC3"},{"bufferView":210,"componentType":5126,"count":24,"max":[1,1],"min":[0,0],"type":"VEC2"},{"bufferView":211,"componentType":5123,"count":36,"max":[23],"min":[0],"type":"SCALAR"},{"bufferView":212,"componentType":5126,"count":24,"max":[0.04100000113248825,0.0035000001080334187,0.03700000047683716],"min":[-0.04100000113248825,-0.0035000001080334187,-0.03700000047683716],"type":"VEC3"},{"bufferView":213,"componentType":5126,"count":24,"max":[1,1,1],"min":[-1,-1,-1],"type":"VEC3"},{"bufferView":214,"componentType":5126,"count":24,"max":[1,1],"min":[0,0],"type":"VEC2"},{"bufferView":215,"componentType":5123,"count":36,"max":[23],"min":[0],"type":"SCALAR"},{"bufferView":216,"componentType":5126,"count":24,"max":[0.04100000113248825,0.0035000001080334187,0.03700000047683716],"min":[-0.04100000113248825,-0.0035000001080334187,-0.03700000047683716],"type":"VEC3"},{"bufferView":217,"componentType":5126,"count":24,"max":[1,1,1],"min":[-1,-1,-1],"type":"VEC3"},{"bufferView":218,"componentType":5126,"count":24,"max":[1,1],"min":[0,0],"type":"VEC2"},{"bufferView":219,"componentType":5123,"count":36,"max":[23],"min":[0],"type":"SCALAR"},{"bufferView":220,"componentType":5126,"count":24,"max":[0.04100000113248825,0.0035000001080334187,0.03700000047683716],"min":[-0.04100000113248825,-0.0035000001080334187,-0.03700000047683716],"type":"VEC3"},{"bufferView":221,"componentType":5126,"count":24,"max":[1,1,1],"min":[-1,-1,-1],"type":"VEC3"},{"bufferView":222,"componentType":5126,"count":24,"max":[1,1],"min":[0,0],"type":"VEC2"},{"bufferView":223,"componentType":5123,"count":36,"max":[23],"min":[0],"type":"SCALAR"},{"bufferView":224,"componentType":5126,"count":24,"max":[0.04100000113248825,0.0035000001080334187,0.03700000047683716],"min":[-0.04100000113248825,-0.0035000001080334187,-0.03700000047683716],"type":"VEC3"},{"bufferView":225,"componentType":5126,"count":24,"max":[1,1,1],"min":[-1,-1,-1],"type":"VEC3"},{"bufferView":226,"componentType":5126,"count":24,"max":[1,1],"min":[0,0],"type":"VEC2"},{"bufferView":227,"componentType":5123,"count":36,"max":[23],"min":[0],"type":"SCALAR"},{"bufferView":228,"componentType":5126,"count":24,"max":[0.0820000022649765,0.0035000001080334187,0.03700000047683716],"min":[-0.0820000022649765,-0.0035000001080334187,-0.03700000047683716],"type":"VEC3"},{"bufferView":229,"componentType":5126,"count":24,"max":[1,1,1],"min":[-1,-1,-1],"type":"VEC3"},{"bufferView":230,"componentType":5126,"count":24,"max":[1,1],"min":[0,0],"type":"VEC2"},{"bufferView":231,"componentType":5123,"count":36,"max":[23],"min":[0],"type":"SCALAR"},{"bufferView":232,"componentType":5126,"count":24,"max":[0.04100000113248825,0.0035000001080334187,0.03700000047683716],"min":[-0.04100000113248825,-0.0035000001080334187,-0.03700000047683716],"type":"VEC3"},{"bufferView":233,"componentType":5126,"count":24,"max":[1,1,1],"min":[-1,-1,-1],"type":"VEC3"},{"bufferView":234,"componentType":5126,"count":24,"max":[1,1],"min":[0,0],"type":"VEC2"},{"bufferView":235,"componentType":5123,"count":36,"max":[23],"min":[0],"type":"SCALAR"},{"bufferView":236,"componentType":5126,"count":24,"max":[0.04100000113248825,0.0035000001080334187,0.03700000047683716],"min":[-0.04100000113248825,-0.0035000001080334187,-0.03700000047683716],"type":"VEC3"},{"bufferView":237,"componentType":5126,"count":24,"max":[1,1,1],"min":[-1,-1,-1],"type":"VEC3"},{"bufferView":238,"componentType":5126,"count":24,"max":[1,1],"min":[0,0],"type":"VEC2"},{"bufferView":239,"componentType":5123,"count":36,"max":[23],"min":[0],"type":"SCALAR"},{"bufferView":240,"componentType":5126,"count":24,"max":[0.04100000113248825,0.0035000001080334187,0.03700000047683716],"min":[-0.04100000113248825,-0.0035000001080334187,-0.03700000047683716],"type":"VEC3"},{"bufferView":241,"componentType":5126,"count":24,"max":[1,1,1],"min":[-1,-1,-1],"type":"VEC3"},{"bufferView":242,"componentType":5126,"count":24,"max":[1,1],"min":[0,0],"type":"VEC2"},{"bufferView":243,"componentType":5123,"count":36,"max":[23],"min":[0],"type":"SCALAR"},{"bufferView":244,"componentType":5126,"count":24,"max":[0.04100000113248825,0.0035000001080334187,0.03700000047683716],"min":[-0.04100000113248825,-0.0035000001080334187,-0.03700000047683716],"type":"VEC3"},{"bufferView":245,"componentType":5126,"count":24,"max":[1,1,1],"min":[-1,-1,-1],"type":"VEC3"},{"bufferView":246,"componentType":5126,"count":24,"max":[1,1],"min":[0,0],"type":"VEC2"},{"bufferView":247,"componentType":5123,"count":36,"max":[23],"min":[0],"type":"SCALAR"},{"bufferView":248,"componentType":5126,"count":24,"max":[0.04100000113248825,0.0035000001080334187,0.03700000047683716],"min":[-0.04100000113248825,-0.0035000001080334187,-0.03700000047683716],"type":"VEC3"},{"bufferView":249,"componentType":5126,"count":24,"max":[1,1,1],"min":[-1,-1,-1],"type":"VEC3"},{"bufferView":250,"componentType":5126,"count":24,"max":[1,1],"min":[0,0],"type":"VEC2"},{"bufferView":251,"componentType":5123,"count":36,"max":[23],"min":[0],"type":"SCALAR"},{"bufferView":252,"componentType":5126,"count":24,"max":[0.05534999817609787,0.0035000001080334187,0.03700000047683716],"min":[-0.05534999817609787,-0.0035000001080334187,-0.03700000047683716],"type":"VEC3"},{"bufferView":253,"componentType":5126,"count":24,"max":[1,1,1],"min":[-1,-1,-1],"type":"VEC3"},{"bufferView":254,"componentType":5126,"count":24,"max":[1,1],"min":[0,0],"type":"VEC2"},{"bufferView":255,"componentType":5123,"count":36,"max":[23],"min":[0],"type":"SCALAR"},{"bufferView":256,"componentType":5126,"count":148,"max":[0.01600000075995922,0.7749999761581421,0.01600000075995922],"min":[-0.01600000075995922,-0.7749999761581421,-0.01600000075995922],"type":"VEC3"},{"bufferView":257,"componentType":5126,"count":148,"max":[1,1,1],"min":[-1,-1,-1],"type":"VEC3"},{"bufferView":258,"componentType":5126,"count":148,"max":[1,1],"min":[0,0],"type":"VEC2"},{"bufferView":259,"componentType":5123,"count":288,"max":[147],"min":[0],"type":"SCALAR"},{"bufferView":260,"componentType":5126,"count":24,"max":[0.05000000074505806,0.013000000268220901,0.02500000037252903],"min":[-0.05000000074505806,-0.013000000268220901,-0.02500000037252903],"type":"VEC3"},{"bufferView":261,"componentType":5126,"count":24,"max":[1,1,1],"min":[-1,-1,-1],"type":"VEC3"},{"bufferView":262,"componentType":5126,"count":24,"max":[1,1],"min":[0,0],"type":"VEC2"},{"bufferView":263,"componentType":5123,"count":36,"max":[23],"min":[0],"type":"SCALAR"},{"bufferView":264,"componentType":5126,"count":24,"max":[0.05000000074505806,0.013000000268220901,0.02500000037252903],"min":[-0.05000000074505806,-0.013000000268220901,-0.02500000037252903],"type":"VEC3"},{"bufferView":265,"componentType":5126,"count":24,"max":[1,1,1],"min":[-1,-1,-1],"type":"VEC3"},{"bufferView":266,"componentType":5126,"count":24,"max":[1,1],"min":[0,0],"type":"VEC2"},{"bufferView":267,"componentType":5123,"count":36,"max":[23],"min":[0],"type":"SCALAR"},{"bufferView":268,"componentType":5126,"count":24,"max":[0.9300000071525574,0.5799999833106995,0.013000000268220901],"min":[-0.9300000071525574,-0.5799999833106995,-0.013000000268220901],"type":"VEC3"},{"bufferView":269,"componentType":5126,"count":24,"max":[1,1,1],"min":[-1,-1,-1],"type":"VEC3"},{"bufferView":270,"componentType":5126,"count":24,"max":[1,1],"min":[0,0],"type":"VEC2"},{"bufferView":271,"componentType":5123,"count":36,"max":[23],"min":[0],"type":"SCALAR"},{"bufferView":272,"componentType":5126,"count":24,"max":[0.8799999952316284,0.5299999713897705,0.006000000052154064],"min":[-0.8799999952316284,-0.5299999713897705,-0.006000000052154064],"type":"VEC3"},{"bufferView":273,"componentType":5126,"count":24,"max":[1,1,1],"min":[-1,-1,-1],"type":"VEC3"},{"bufferView":274,"componentType":5126,"count":24,"max":[1,1],"min":[0,0],"type":"VEC2"},{"bufferView":275,"componentType":5123,"count":36,"max":[23],"min":[0],"type":"SCALAR"},{"bufferView":276,"componentType":5126,"count":24,"max":[0.7900000214576721,0.44999998807907104,0.004000000189989805],"min":[-0.7900000214576721,-0.44999998807907104,-0.004000000189989805],"type":"VEC3"},{"bufferView":277,"componentType":5126,"count":24,"max":[1,1,1],"min":[-1,-1,-1],"type":"VEC3"},{"bufferView":278,"componentType":5126,"count":24,"max":[1,1],"min":[0,0],"type":"VEC2"},{"bufferView":279,"componentType":5123,"count":36,"max":[23],"min":[0],"type":"SCALAR"},{"bufferView":280,"componentType":5126,"count":100,"max":[0.00800000037997961,0.0020000000949949026,0.00800000037997961],"min":[-0.00800000037997961,-0.0020000000949949026,-0.00800000037997961],"type":"VEC3"},{"bufferView":281,"componentType":5126,"count":100,"max":[1,1,1],"min":[-1,-1,-1],"type":"VEC3"},{"bufferView":282,"componentType":5126,"count":100,"max":[1,1],"min":[0,0],"type":"VEC2"},{"bufferView":283,"componentType":5123,"count":192,"max":[99],"min":[0],"type":"SCALAR"}],"materials":[{"pbrMetallicRoughness":{"baseColorFactor":[0.5775804404214573,0.6038273388475408,0.6444796819634361,1],"metallicFactor":0.72,"roughnessFactor":0.35}},{"pbrMetallicRoughness":{"baseColorFactor":[0.3231432091022285,0.35640014413537763,0.407240211891531,1],"metallicFactor":0.64,"roughnessFactor":0.4}},{"pbrMetallicRoughness":{"baseColorFactor":[0.013702083043526807,0.02217388478862708,0.03820437158923601,1],"metallicFactor":0.1,"roughnessFactor":0.7}},{"pbrMetallicRoughness":{"baseColorFactor":[0.014443843592229466,0.01764195448412081,0.024157632443547246,1],"metallicFactor":0.12,"roughnessFactor":0.65}},{"pbrMetallicRoughness":{"baseColorFactor":[0.0060488330203860696,0.0069954101845983935,0.008568125615105716,1],"metallicFactor":0.02,"roughnessFactor":0.55}}],"meshes":[{"primitives":[{"mode":4,"attributes":{"POSITION":0,"NORMAL":1,"TEXCOORD_0":2},"indices":3,"material":0}]},{"primitives":[{"mode":4,"attributes":{"POSITION":4,"NORMAL":5,"TEXCOORD_0":6},"indices":7,"material":0}]},{"primitives":[{"mode":4,"attributes":{"POSITION":8,"NORMAL":9,"TEXCOORD_0":10},"indices":11,"material":1}]},{"primitives":[{"mode":4,"attributes":{"POSITION":12,"NORMAL":13,"TEXCOORD_0":14},"indices":15,"material":1}]},{"primitives":[{"mode":4,"attributes":{"POSITION":16,"NORMAL":17,"TEXCOORD_0":18},"indices":19,"material":2}]},{"primitives":[{"mode":4,"attributes":{"POSITION":20,"NORMAL":21,"TEXCOORD_0":22},"indices":23,"material":2}]},{"primitives":[{"mode":4,"attributes":{"POSITION":24,"NORMAL":25,"TEXCOORD_0":26},"indices":27,"material":2}]},{"primitives":[{"mode":4,"attributes":{"POSITION":28,"NORMAL":29,"TEXCOORD_0":30},"indices":31,"material":2}]},{"primitives":[{"mode":4,"attributes":{"POSITION":32,"NORMAL":33,"TEXCOORD_0":34},"indices":35,"material":2}]},{"primitives":[{"mode":4,"attributes":{"POSITION":36,"NORMAL":37,"TEXCOORD_0":38},"indices":39,"material":2}]},{"primitives":[{"mode":4,"attributes":{"POSITION":40,"NORMAL":41,"TEXCOORD_0":42},"indices":43,"material":2}]},{"primitives":[{"mode":4,"attributes":{"POSITION":44,"NORMAL":45,"TEXCOORD_0":46},"indices":47,"material":2}]},{"primitives":[{"mode":4,"attributes":{"POSITION":48,"NORMAL":49,"TEXCOORD_0":50},"indices":51,"material":2}]},{"primitives":[{"mode":4,"attributes":{"POSITION":52,"NORMAL":53,"TEXCOORD_0":54},"indices":55,"material":2}]},{"primitives":[{"mode":4,"attributes":{"POSITION":56,"NORMAL":57,"TEXCOORD_0":58},"indices":59,"material":2}]},{"primitives":[{"mode":4,"attributes":{"POSITION":60,"NORMAL":61,"TEXCOORD_0":62},"indices":63,"material":2}]},{"primitives":[{"mode":4,"attributes":{"POSITION":64,"NORMAL":65,"TEXCOORD_0":66},"indices":67,"material":2}]},{"primitives":[{"mode":4,"attributes":{"POSITION":68,"NORMAL":69,"TEXCOORD_0":70},"indices":71,"material":2}]},{"primitives":[{"mode":4,"attributes":{"POSITION":72,"NORMAL":73,"TEXCOORD_0":74},"indices":75,"material":2}]},{"primitives":[{"mode":4,"attributes":{"POSITION":76,"NORMAL":77,"TEXCOORD_0":78},"indices":79,"material":2}]},{"primitives":[{"mode":4,"attributes":{"POSITION":80,"NORMAL":81,"TEXCOORD_0":82},"indices":83,"material":2}]},{"primitives":[{"mode":4,"attributes":{"POSITION":84,"NORMAL":85,"TEXCOORD_0":86},"indices":87,"material":2}]},{"primitives":[{"mode":4,"attributes":{"POSITION":88,"NORMAL":89,"TEXCOORD_0":90},"indices":91,"material":2}]},{"primitives":[{"mode":4,"attributes":{"POSITION":92,"NORMAL":93,"TEXCOORD_0":94},"indices":95,"material":2}]},{"primitives":[{"mode":4,"attributes":{"POSITION":96,"NORMAL":97,"TEXCOORD_0":98},"indices":99,"material":2}]},{"primitives":[{"mode":4,"attributes":{"POSITION":100,"NORMAL":101,"TEXCOORD_0":102},"indices":103,"material":2}]},{"primitives":[{"mode":4,"attributes":{"POSITION":104,"NORMAL":105,"TEXCOORD_0":106},"indices":107,"material":2}]},{"primitives":[{"mode":4,"attributes":{"POSITION":108,"NORMAL":109,"TEXCOORD_0":110},"indices":111,"material":2}]},{"primitives":[{"mode":4,"attributes":{"POSITION":112,"NORMAL":113,"TEXCOORD_0":114},"indices":115,"material":2}]},{"primitives":[{"mode":4,"attributes":{"POSITION":116,"NORMAL":117,"TEXCOORD_0":118},"indices":119,"material":2}]},{"primitives":[{"mode":4,"attributes":{"POSITION":120,"NORMAL":121,"TEXCOORD_0":122},"indices":123,"material":2}]},{"primitives":[{"mode":4,"attributes":{"POSITION":124,"NORMAL":125,"TEXCOORD_0":126},"indices":127,"material":2}]},{"primitives":[{"mode":4,"attributes":{"POSITION":128,"NORMAL":129,"TEXCOORD_0":130},"indices":131,"material":2}]},{"primitives":[{"mode":4,"attributes":{"POSITION":132,"NORMAL":133,"TEXCOORD_0":134},"indices":135,"material":2}]},{"primitives":[{"mode":4,"attributes":{"POSITION":136,"NORMAL":137,"TEXCOORD_0":138},"indices":139,"material":2}]},{"primitives":[{"mode":4,"attributes":{"POSITION":140,"NORMAL":141,"TEXCOORD_0":142},"indices":143,"material":2}]},{"primitives":[{"mode":4,"attributes":{"POSITION":144,"NORMAL":145,"TEXCOORD_0":146},"indices":147,"material":2}]},{"primitives":[{"mode":4,"attributes":{"POSITION":148,"NORMAL":149,"TEXCOORD_0":150},"indices":151,"material":2}]},{"primitives":[{"mode":4,"attributes":{"POSITION":152,"NORMAL":153,"TEXCOORD_0":154},"indices":155,"material":2}]},{"primitives":[{"mode":4,"attributes":{"POSITION":156,"NORMAL":157,"TEXCOORD_0":158},"indices":159,"material":2}]},{"primitives":[{"mode":4,"attributes":{"POSITION":160,"NORMAL":161,"TEXCOORD_0":162},"indices":163,"material":2}]},{"primitives":[{"mode":4,"attributes":{"POSITION":164,"NORMAL":165,"TEXCOORD_0":166},"indices":167,"material":2}]},{"primitives":[{"mode":4,"attributes":{"POSITION":168,"NORMAL":169,"TEXCOORD_0":170},"indices":171,"material":2}]},{"primitives":[{"mode":4,"attributes":{"POSITION":172,"NORMAL":173,"TEXCOORD_0":174},"indices":175,"material":2}]},{"primitives":[{"mode":4,"attributes":{"POSITION":176,"NORMAL":177,"TEXCOORD_0":178},"indices":179,"material":2}]},{"primitives":[{"mode":4,"attributes":{"POSITION":180,"NORMAL":181,"TEXCOORD_0":182},"indices":183,"material":2}]},{"primitives":[{"mode":4,"attributes":{"POSITION":184,"NORMAL":185,"TEXCOORD_0":186},"indices":187,"material":2}]},{"primitives":[{"mode":4,"attributes":{"POSITION":188,"NORMAL":189,"TEXCOORD_0":190},"indices":191,"material":2}]},{"primitives":[{"mode":4,"attributes":{"POSITION":192,"NORMAL":193,"TEXCOORD_0":194},"indices":195,"material":2}]},{"primitives":[{"mode":4,"attributes":{"POSITION":196,"NORMAL":197,"TEXCOORD_0":198},"indices":199,"material":2}]},{"primitives":[{"mode":4,"attributes":{"POSITION":200,"NORMAL":201,"TEXCOORD_0":202},"indices":203,"material":2}]},{"primitives":[{"mode":4,"attributes":{"POSITION":204,"NORMAL":205,"TEXCOORD_0":206},"indices":207,"material":2}]},{"primitives":[{"mode":4,"attributes":{"POSITION":208,"NORMAL":209,"TEXCOORD_0":210},"indices":211,"material":2}]},{"primitives":[{"mode":4,"attributes":{"POSITION":212,"NORMAL":213,"TEXCOORD_0":214},"indices":215,"material":2}]},{"primitives":[{"mode":4,"attributes":{"POSITION":216,"NORMAL":217,"TEXCOORD_0":218},"indices":219,"material":2}]},{"primitives":[{"mode":4,"attributes":{"POSITION":220,"NORMAL":221,"TEXCOORD_0":222},"indices":223,"material":2}]},{"primitives":[{"mode":4,"attributes":{"POSITION":224,"NORMAL":225,"TEXCOORD_0":226},"indices":227,"material":2}]},{"primitives":[{"mode":4,"attributes":{"POSITION":228,"NORMAL":229,"TEXCOORD_0":230},"indices":231,"material":2}]},{"primitives":[{"mode":4,"attributes":{"POSITION":232,"NORMAL":233,"TEXCOORD_0":234},"indices":235,"material":2}]},{"primitives":[{"mode":4,"attributes":{"POSITION":236,"NORMAL":237,"TEXCOORD_0":238},"indices":239,"material":2}]},{"primitives":[{"mode":4,"attributes":{"POSITION":240,"NORMAL":241,"TEXCOORD_0":242},"indices":243,"material":2}]},{"primitives":[{"mode":4,"attributes":{"POSITION":244,"NORMAL":245,"TEXCOORD_0":246},"indices":247,"material":2}]},{"primitives":[{"mode":4,"attributes":{"POSITION":248,"NORMAL":249,"TEXCOORD_0":250},"indices":251,"material":2}]},{"primitives":[{"mode":4,"attributes":{"POSITION":252,"NORMAL":253,"TEXCOORD_0":254},"indices":255,"material":2}]},{"primitives":[{"mode":4,"attributes":{"POSITION":256,"NORMAL":257,"TEXCOORD_0":258},"indices":259,"material":1}]},{"primitives":[{"mode":4,"attributes":{"POSITION":260,"NORMAL":261,"TEXCOORD_0":262},"indices":263,"material":1}]},{"primitives":[{"mode":4,"attributes":{"POSITION":264,"NORMAL":265,"TEXCOORD_0":266},"indices":267,"material":1}]},{"primitives":[{"mode":4,"attributes":{"POSITION":268,"NORMAL":269,"TEXCOORD_0":270},"indices":271,"material":0}]},{"primitives":[{"mode":4,"attributes":{"POSITION":272,"NORMAL":273,"TEXCOORD_0":274},"indices":275,"material":3}]},{"primitives":[{"mode":4,"attributes":{"POSITION":276,"NORMAL":277,"TEXCOORD_0":278},"indices":279,"material":4}]},{"primitives":[{"mode":4,"attributes":{"POSITION":280,"NORMAL":281,"TEXCOORD_0":282},"indices":283,"material":3}]}]}